<svg class="logo" width="150px" height="40px" viewBox="0 0 297 59" fill="none" xmlns="http://www.w3.org/2000/svg">
    <path
        d="M35.1047 41.724C35.1047 42.62 35.1474 43.3667 35.2327 43.964C35.3607 44.5613 35.4887 45.0307 35.6167 45.372C35.7874 45.7987 35.9794 46.0973 36.1927 46.268C35.7234 46.268 35.1687 46.5667 34.5287 47.164C33.8887 47.7613 33.142 48.508 32.2887 49.404C31.478 50.3 30.5394 51.26 29.4727 52.284C28.4487 53.308 27.318 54.268 26.0807 55.164C24.8434 56.06 23.478 56.8067 21.9847 57.404C20.534 58.0013 18.9554 58.3 17.2487 58.3C14.902 58.3 12.7047 57.8947 10.6567 57.084C8.6087 56.2733 6.8167 55.1853 5.2807 53.82C3.7447 52.4547 2.5287 50.8333 1.6327 48.956C0.736696 47.1213 0.288696 45.1373 0.288696 43.004C0.288696 41.0413 0.608696 39.2067 1.2487 37.5C1.8887 35.7507 2.76336 34.236 3.8727 32.956C4.98203 31.6333 6.28336 30.6093 7.7767 29.884C9.27003 29.116 10.87 28.732 12.5767 28.732C14.0274 28.732 15.3927 28.988 16.6727 29.5C17.9527 30.012 19.062 30.716 20.0007 31.612C20.982 32.4653 21.75 33.468 22.3047 34.62C22.8594 35.772 23.1367 37.0093 23.1367 38.332C23.1367 38.844 23.0087 39.3347 22.7527 39.804C22.4967 40.2733 22.1767 40.7427 21.7927 41.212C21.4514 41.6387 21.0887 42.0653 20.7047 42.492C20.3207 42.9187 19.9794 43.3027 19.6807 43.644C19.0834 44.3693 18.678 45.0093 18.4647 45.564C18.2514 46.1187 18.1874 46.8867 18.2727 47.868C16.4807 46.716 15.3714 45.6067 14.9447 44.54C14.5607 43.4307 14.646 42.2573 15.2007 41.02C15.4567 40.4227 15.7767 39.868 16.1607 39.356C16.5874 38.8013 16.9927 38.2893 17.3767 37.82C17.7607 37.308 18.0807 36.8173 18.3367 36.348C18.5927 35.836 18.7207 35.3453 18.7207 34.876C18.7207 33.724 18.3154 32.7427 17.5047 31.932C16.694 31.0787 15.7127 30.652 14.5607 30.652C13.238 30.652 11.9794 30.9933 10.7847 31.676C9.6327 32.316 8.63003 33.1907 7.7767 34.3C6.92336 35.4093 6.2407 36.7107 5.7287 38.204C5.2167 39.6973 4.9607 41.2973 4.9607 43.004C4.9607 44.7533 5.25936 46.4173 5.8567 47.996C6.4967 49.5747 7.35003 50.9613 8.4167 52.156C9.48336 53.3507 10.7207 54.2893 12.1287 54.972C13.5794 55.6973 15.1154 56.06 16.7367 56.06H16.8007C18.166 56.06 19.3607 55.8467 20.3847 55.42C21.4514 55.036 22.3687 54.5027 23.1367 53.82C23.9047 53.1373 24.566 52.3267 25.1207 51.388C25.6754 50.4493 26.1234 49.4467 26.4647 48.38C26.8914 46.972 27.1047 45.4147 27.1047 43.708C27.1047 41.1907 26.806 38.9933 26.2087 37.116C25.654 35.196 24.9074 33.5533 23.9687 32.188C23.03 30.8227 21.9634 29.7133 20.7687 28.86C19.574 28.0067 18.3367 27.3453 17.0567 26.876C15.7767 26.4067 14.518 26.1293 13.2807 26.044C12.086 25.916 10.998 25.916 10.0167 26.044C9.80336 26.0867 9.61136 26.2787 9.4407 26.62C9.3127 26.9187 9.1207 27.1533 8.8647 27.324C8.6087 27.5373 8.33136 27.6013 8.0327 27.516C7.7767 27.4307 7.60603 27.2387 7.5207 26.94C7.47803 26.684 7.62736 26.428 7.9687 26.172C8.31003 25.8733 8.9927 25.6387 10.0167 25.468C10.9554 25.34 12.022 25.34 13.2167 25.468C14.454 25.596 15.7127 25.916 16.9927 26.428C18.3154 26.8973 19.5954 27.58 20.8327 28.476C22.07 29.372 23.1794 30.5027 24.1607 31.868C25.142 33.2333 25.9314 34.876 26.5287 36.796C27.126 38.716 27.446 40.956 27.4887 43.516C27.574 42.7053 27.638 41.916 27.6807 41.148C27.7234 40.38 27.7447 39.612 27.7447 38.844C27.7447 36.9667 27.4887 35.2813 26.9767 33.788C26.4647 32.2947 25.5687 30.8867 24.2887 29.564C23.0087 28.1987 21.2807 26.8547 19.1047 25.532C16.9287 24.1667 14.1554 22.6947 10.7847 21.116C10.9554 20.9027 11.126 20.5827 11.2967 20.156C11.4247 19.8147 11.5527 19.3453 11.6807 18.748C11.8087 18.1507 11.8727 17.404 11.8727 16.508V4.924C11.8727 4.028 11.8087 3.28133 11.6807 2.684C11.5527 2.08666 11.4247 1.61733 11.2967 1.276C11.126 0.849331 10.9554 0.529331 10.7847 0.315998C11.2114 0.486665 11.6807 0.763999 12.1927 1.148C12.7047 1.532 13.238 1.95867 13.7927 2.428C14.3474 2.89733 14.9234 3.40933 15.5207 3.964C16.118 4.476 16.7154 4.96666 17.3127 5.436C18.3794 4.45466 19.3607 3.75066 20.2567 3.324C21.1527 2.89733 22.0487 2.59866 22.9447 2.428C23.8407 2.25733 24.7367 2.19333 25.6327 2.236C26.5287 2.236 27.4887 2.21466 28.5127 2.172C29.5794 2.08666 30.7314 1.93733 31.9687 1.724C33.206 1.468 34.614 1.02 36.1927 0.379997C35.9794 0.59333 35.7874 0.91333 35.6167 1.34C35.4887 1.68133 35.3607 2.15066 35.2327 2.748C35.1474 3.30266 35.1047 4.028 35.1047 4.924V13.436C35.1047 14.2893 34.8487 15.0573 34.3367 15.74C33.8247 16.4227 33.1634 16.8707 32.3527 17.084L26.7207 18.812C26.934 18.3427 27.126 17.8733 27.2967 17.404C27.4674 16.9773 27.6167 16.508 27.7447 15.996C27.8727 15.4413 27.9367 14.8867 27.9367 14.332V5.308C26.5287 5.308 25.3127 5.39333 24.2887 5.564C23.3074 5.73467 22.4754 5.99067 21.7927 6.332C21.1527 6.63066 20.6407 7.01466 20.2567 7.484C19.9154 7.91066 19.6594 8.38 19.4887 8.892C19.4034 9.23333 19.318 9.66 19.2327 10.172C19.19 10.6413 19.1687 11.2387 19.1687 11.964V16.508C19.1687 17.66 19.574 18.7053 20.3847 19.644C21.238 20.54 22.4114 21.4147 23.9047 22.268C25.398 23.1213 27.19 23.996 29.2807 24.892C31.3714 25.7453 33.6754 26.7267 36.1927 27.836C35.9794 28.0493 35.7874 28.3693 35.6167 28.796C35.4887 29.1373 35.3607 29.6067 35.2327 30.204C35.1474 30.8013 35.1047 31.548 35.1047 32.444V41.724ZM31.2007 13.756L31.4567 14.972L31.7767 13.756L31.4567 4.412L31.2007 13.756ZM15.2647 18.684C15.2647 19.3667 15.478 19.964 15.9047 20.476C16.3314 20.988 16.886 21.4787 17.5687 21.948C18.294 22.3747 19.126 22.8013 20.0647 23.228C21.046 23.612 22.07 24.06 23.1367 24.572C22.1554 24.0173 21.2167 23.5053 20.3207 23.036C19.4674 22.5667 18.6994 22.1187 18.0167 21.692C17.334 21.2227 16.7794 20.7533 16.3527 20.284C15.9687 19.772 15.7767 19.2173 15.7767 18.62C15.734 17.596 15.7127 16.444 15.7127 15.164C15.7127 13.884 15.6914 12.6893 15.6487 11.58C15.606 10.2573 15.5634 8.93466 15.5207 7.612C15.478 9.44667 15.4354 11.132 15.3927 12.668C15.35 13.9907 15.3074 15.2493 15.2647 16.444C15.2647 17.596 15.2647 18.3427 15.2647 18.684ZM31.4567 44.988C31.4994 42.428 31.542 40.1027 31.5847 38.012C31.5847 37.116 31.5847 36.2413 31.5847 35.388C31.6274 34.5347 31.6487 33.7667 31.6487 33.084C31.6914 32.3587 31.7127 31.7613 31.7127 31.292C31.7127 30.78 31.7127 30.4813 31.7127 30.396C31.7127 30.0547 31.5207 29.6707 31.1367 29.244C30.7527 28.8173 30.1127 28.3053 29.2167 27.708C29.0887 27.58 28.918 27.4733 28.7047 27.388C28.534 27.26 28.2567 27.1107 27.8727 26.94C27.4887 26.7267 26.9767 26.4707 26.3367 26.172C25.6967 25.8307 24.8647 25.4253 23.8407 24.956C24.6087 25.4253 25.2487 25.8093 25.7607 26.108C26.3154 26.364 26.7847 26.62 27.1687 26.876C27.5527 27.0893 27.894 27.2813 28.1927 27.452C28.4914 27.6227 28.7687 27.8147 29.0247 28.028C30.4754 29.1373 31.2007 29.9267 31.2007 30.396L31.4567 44.988ZM58.3742 17.532C58.1609 17.7453 57.9689 18.0867 57.7982 18.556C57.6275 18.94 57.4782 19.452 57.3502 20.092C57.2649 20.6893 57.2222 21.4573 57.2222 22.396V39.932C57.2222 41.4253 56.6889 42.7693 55.6222 43.964L57.2222 45.5H38.7262C38.9395 45.3293 39.1315 45.0093 39.3022 44.54C39.4302 44.1987 39.5582 43.708 39.6862 43.068C39.8142 42.428 39.8782 41.6173 39.8782 40.636V23.164C39.8782 21.7133 40.4115 20.348 41.4782 19.068L39.8782 17.532H58.3742ZM53.8942 29.052L54.1502 30.076L54.4062 29.052L54.1502 20.668L53.8942 29.052ZM42.6942 29.052L42.9502 30.076L43.2062 29.052L42.9502 20.668L42.6942 29.052ZM43.2062 33.98L42.9502 32.956L42.6942 33.98L42.9502 42.364L43.2062 33.98ZM43.4622 31.548L42.9502 30.332L42.4382 31.548L42.9502 32.764L43.4622 31.548ZM49.0302 42.364C50.3955 41.34 51.0782 40.0387 51.0782 38.46V19.388H49.6702C48.6462 19.388 47.7715 19.6867 47.0462 20.284C46.3635 20.8813 46.0222 21.6067 46.0222 22.46V43.644H50.8222L49.0302 42.364ZM54.4062 33.98L54.1502 32.956L53.8942 33.98L54.1502 42.364L54.4062 33.98ZM54.6622 31.548L54.1502 30.332L53.6382 31.548L54.1502 32.764L54.6622 31.548ZM89.2957 45.82C89.2957 46.5453 89.4237 47.292 89.6797 48.06C89.9784 48.828 90.1917 49.3827 90.3197 49.724C90.1917 49.5107 89.8717 49.148 89.3597 48.636C88.8904 48.1667 88.037 47.5907 86.7997 46.908C86.3304 46.652 85.669 46.3533 84.8157 46.012C84.005 45.6707 82.7464 45.5 81.0397 45.5H81.1037C81.317 45.372 81.5304 45.2013 81.7437 44.988C81.9997 44.732 82.277 44.3693 82.5757 43.9L81.1677 42.812C82.533 41.788 83.2157 40.4867 83.2157 38.908V20.22C82.8317 20.4333 82.405 20.668 81.9357 20.924C81.4664 21.18 80.997 21.5 80.5277 21.884C80.0584 22.2253 79.6104 22.652 79.1837 23.164C78.757 23.676 78.3944 24.2947 78.0957 25.02V39.932C78.0957 41.3827 77.5837 42.7267 76.5597 43.964L78.0957 45.5H69.9037L70.4797 45.052C70.693 44.8813 70.8637 44.7107 70.9917 44.54C71.1197 44.3267 71.2477 44.1133 71.3757 43.9L69.9677 42.812C71.333 41.788 72.0157 40.4867 72.0157 38.908V20.22C71.6317 20.4333 71.205 20.668 70.7357 20.924C70.2664 21.18 69.797 21.5 69.3277 21.884C68.8584 22.2253 68.4104 22.652 67.9837 23.164C67.557 23.676 67.1944 24.2947 66.8957 25.02V42.428C66.8957 43.1533 66.6184 43.8147 66.0637 44.412C65.5517 44.9667 64.8904 45.308 64.0797 45.436C64.037 45.4787 63.9944 45.5 63.9517 45.5H59.6637C59.877 45.3293 60.069 45.0093 60.2397 44.54C60.3677 44.1987 60.4957 43.708 60.6237 43.068C60.7517 42.428 60.8157 41.6173 60.8157 40.636V23.164C60.8157 21.7133 61.3277 20.348 62.3517 19.068L60.8157 17.532H68.0477C67.9197 17.7027 67.7704 17.9587 67.5997 18.3C67.4717 18.5987 67.3437 18.9827 67.2157 19.452C67.0877 19.8787 67.0024 20.4333 66.9597 21.116C67.7704 20.0493 68.837 19.1533 70.1597 18.428C71.2264 17.8307 72.3784 17.532 73.6157 17.532H79.2477C79.1197 17.7027 78.9704 17.9587 78.7997 18.3C78.6717 18.5987 78.5437 18.9827 78.4157 19.452C78.2877 19.8787 78.2024 20.4333 78.1597 21.116C78.9704 20.0493 80.037 19.1533 81.3597 18.428C82.4264 17.8307 83.5784 17.532 84.8157 17.532H90.4477C90.2344 17.7453 90.0424 18.0867 89.8717 18.556C89.701 18.94 89.5517 19.452 89.4237 20.092C89.3384 20.6893 89.2957 21.4573 89.2957 22.396V45.82ZM63.6317 29.052L63.8877 30.076L64.0797 29.052L63.8877 20.668L63.6317 29.052ZM64.0797 33.98L63.8877 32.956L63.6317 33.98L63.8877 42.364L64.0797 33.98ZM64.3357 31.548L63.8877 30.332L63.3757 31.548L63.8877 32.764L64.3357 31.548ZM74.8317 29.052L75.0237 30.076L75.2797 29.052L75.0237 20.668L74.8317 29.052ZM75.2797 33.98L75.0237 32.956L74.8317 33.98L75.0237 42.364L75.2797 33.98ZM75.5357 31.548L75.0237 30.332L74.5757 31.548L75.0237 32.764L75.5357 31.548ZM86.0317 29.052L86.2237 30.076L86.4797 29.052L86.2237 20.668L86.0317 29.052ZM86.4797 33.98L86.2237 32.956L86.0317 33.98L86.2237 42.364L86.4797 33.98ZM86.7357 31.548L86.2237 30.332L85.7757 31.548L86.2237 32.764L86.7357 31.548ZM111.31 17.532C111.097 17.7453 110.905 18.0867 110.734 18.556C110.606 18.94 110.478 19.452 110.35 20.092C110.265 20.6893 110.222 21.4573 110.222 22.396V39.932C110.222 41.4253 109.689 42.7693 108.622 43.964L110.222 45.5H91.7262C91.9395 45.3293 92.1315 45.0093 92.3022 44.54C92.4302 44.1987 92.5582 43.708 92.6862 43.068C92.8142 42.428 92.8782 41.6173 92.8782 40.636V11.772C92.8782 11.0893 92.9422 10.4493 93.0702 9.852C93.2409 9.212 93.5822 8.636 94.0942 8.124L91.9822 8.252C92.0675 8.16666 92.4942 7.78266 93.2622 7.1C94.0729 6.37466 94.9475 5.628 95.8862 4.86C96.8675 4.04933 97.7849 3.324 98.6382 2.684C99.4915 2.044 100.004 1.724 100.174 1.724C99.9609 1.93733 99.7689 2.27866 99.5982 2.748C99.4275 3.132 99.2782 3.644 99.1502 4.284C99.0649 4.88133 99.0222 5.64933 99.0222 6.588V21.18C99.7902 20.0707 100.857 19.1533 102.222 18.428C103.289 17.8307 104.441 17.532 105.678 17.532H111.31ZM95.6942 29.052L95.9502 30.076L96.2062 29.052L95.9502 9.596L95.6942 29.052ZM96.2062 33.98L95.9502 32.956L95.6942 33.98L95.9502 42.364L96.2062 33.98ZM96.4622 31.548L95.9502 30.332L95.4382 31.548L95.9502 32.764L96.4622 31.548ZM104.078 20.22C103.694 20.4333 103.268 20.668 102.798 20.924C102.329 21.18 101.86 21.5 101.39 21.884C100.921 22.2253 100.473 22.652 100.046 23.164C99.6622 23.676 99.3209 24.2947 99.0222 25.02V43.644H103.822L102.03 42.364C103.396 41.34 104.078 40.0387 104.078 38.46V20.22ZM106.894 29.052L107.15 30.076L107.406 29.052L107.15 20.668L106.894 29.052ZM107.406 33.98L107.15 32.956L106.894 33.98L107.15 42.364L107.406 33.98ZM107.662 31.548L107.15 30.332L106.638 31.548L107.15 32.764L107.662 31.548ZM127.528 15.932C128.467 15.164 129.32 14.4813 130.088 13.884C130.856 13.2867 131.326 12.988 131.496 12.988C131.368 13.2013 131.219 13.4787 131.048 13.82C130.92 14.1187 130.792 14.524 130.664 15.036C130.579 15.548 130.515 16.1667 130.472 16.892V26.94C130.472 28.4333 129.726 29.5853 128.232 30.396L125.608 31.804C124.798 32.2307 123.859 32.444 122.792 32.444C123.688 31.7613 124.2 30.844 124.328 29.692V21.244L122.984 21.948C122.088 22.4173 121.32 23.0147 120.68 23.74C120.083 24.4227 119.614 25.1693 119.272 25.98V39.932C119.272 41.4253 118.739 42.7693 117.672 43.964L119.272 45.5H116.008H115.432H111.976C112.19 45.3293 112.382 45.0093 112.552 44.54C112.68 44.1987 112.808 43.708 112.936 43.068C113.064 42.428 113.128 41.6173 113.128 40.636V23.164C113.128 21.7133 113.662 20.348 114.728 19.068L113.128 17.532H120.424C120.211 17.788 120.019 18.1293 119.848 18.556C119.678 18.94 119.528 19.4307 119.4 20.028C119.315 20.6253 119.272 21.3933 119.272 22.332C119.955 20.6253 121.192 19.2813 122.984 18.3C123.496 18.0013 123.923 17.8093 124.264 17.724C124.606 17.596 124.926 17.468 125.224 17.34C125.566 17.212 125.907 17.0627 126.248 16.892C126.59 16.6787 127.016 16.3587 127.528 15.932ZM115.944 29.052L116.2 30.076L116.456 29.052L116.2 20.668L115.944 29.052ZM116.456 33.98L116.2 32.956L115.944 33.98L116.2 42.364L116.456 33.98ZM116.712 31.548L116.2 30.332L115.688 31.548L116.2 32.764L116.712 31.548ZM127.528 26.556L127.4 20.668L127.208 26.556H127.528ZM151.812 17.532C151.598 17.7453 151.406 18.0867 151.236 18.556C151.065 18.94 150.916 19.452 150.788 20.092C150.702 20.6893 150.66 21.4573 150.66 22.396V39.932C150.66 41.4253 150.126 42.7693 149.06 43.964L150.66 45.5H132.164C132.377 45.3293 132.569 45.0093 132.74 44.54C132.868 44.1987 132.996 43.708 133.124 43.068C133.252 42.428 133.316 41.6173 133.316 40.636V35.644C133.316 34.7907 133.572 33.98 134.084 33.212C134.596 32.4013 135.278 31.7613 136.132 31.292L141.7 28.22C142.596 27.7507 143.278 27.132 143.748 26.364C144.26 25.5533 144.516 24.7213 144.516 23.868V19.388H143.108C142.084 19.388 141.209 19.6867 140.484 20.284C139.801 20.8813 139.46 21.6067 139.46 22.46V24.316C139.46 25.1693 139.204 26.0013 138.692 26.812C138.18 27.58 137.497 28.1987 136.644 28.668L133.316 30.46V23.164C133.316 21.7133 133.849 20.348 134.916 19.068L133.316 17.532H144.516H146.564H151.812ZM136.58 26.556L136.388 20.668L136.196 26.556H136.58ZM136.58 34.62H136.196L136.388 42.364L136.58 34.62ZM142.468 42.364C143.833 41.34 144.516 40.0387 144.516 38.46V29.308L142.276 30.524C141.38 30.9933 140.676 31.6333 140.164 32.444C139.694 33.2547 139.46 34.108 139.46 35.004V43.644H144.26L142.468 42.364ZM147.332 29.052L147.588 30.076L147.844 29.052L147.588 20.668L147.332 29.052ZM147.844 33.98L147.588 32.956L147.332 33.98L147.588 42.364L147.844 33.98ZM148.1 31.548L147.588 30.332L147.076 31.548L147.588 32.764L148.1 31.548ZM160.397 43.644H165.197L163.405 42.364C164.771 41.34 165.453 40.0387 165.453 38.46V36.988C165.453 36.092 165.197 35.26 164.685 34.492C164.216 33.724 163.533 33.1053 162.637 32.636L157.069 29.564C156.216 29.0947 155.533 28.476 155.021 27.708C154.509 26.8973 154.253 26.044 154.253 25.148V23.036C154.296 21.5853 154.829 20.2627 155.853 19.068L154.253 17.532H166.797C167.352 17.0627 167.949 16.572 168.589 16.06C169.229 15.5053 169.827 15.0147 170.381 14.588C170.936 14.1187 171.405 13.7347 171.789 13.436C172.216 13.1373 172.493 12.988 172.621 12.988C172.451 13.2013 172.28 13.5427 172.109 14.012C171.981 14.396 171.853 14.908 171.725 15.548C171.64 16.1453 171.597 16.9133 171.597 17.852V23.42C171.597 24.316 171.341 25.1693 170.829 25.98C170.317 26.748 169.635 27.3667 168.781 27.836L165.453 29.628V20.604C165.453 20.4333 165.453 20.2413 165.453 20.028C165.496 19.8147 165.56 19.6013 165.645 19.388H164.109C163.085 19.388 162.211 19.6867 161.485 20.284C160.76 20.8387 160.397 21.564 160.397 22.46V25.852C160.397 26.748 160.632 27.6013 161.101 28.412C161.613 29.18 162.317 29.7987 163.213 30.268L169.805 33.916C170.36 34.2147 170.787 34.6413 171.085 35.196C171.427 35.708 171.597 36.2627 171.597 36.86V40.636C171.597 41.6173 171.64 42.428 171.725 43.068C171.853 43.708 171.981 44.1987 172.109 44.54C172.28 45.0093 172.472 45.3293 172.685 45.5H153.101C153.315 45.3293 153.507 45.0093 153.677 44.54C153.805 44.1987 153.933 43.708 154.061 43.068C154.189 42.428 154.253 41.6173 154.253 40.636V32.124L158.157 34.172C159.651 34.9827 160.397 36.1347 160.397 37.628V43.644ZM157.517 36.54H157.133L157.325 42.364L157.517 36.54ZM168.333 26.556H168.653L168.525 20.668L168.333 26.556ZM157.517 26.556L157.325 20.668L157.133 26.556H157.517ZM168.333 36.54L168.525 42.364L168.653 36.54H168.333ZM232.741 1.66C232.869 2.3 232.762 3.068 232.421 3.964C232.079 4.81733 231.631 5.67067 231.077 6.524C230.565 7.37733 230.01 8.16666 229.413 8.892C228.815 9.61733 228.346 10.1293 228.005 10.428C227.45 10.5987 226.682 10.684 225.701 10.684C224.762 10.684 223.653 10.6413 222.373 10.556C221.135 10.428 219.791 10.2787 218.341 10.108C216.89 9.89466 215.418 9.66 213.925 9.404C213.797 10.1293 213.733 10.9187 213.733 11.772V41.724C213.733 42.62 213.775 43.3667 213.861 43.964C213.989 44.5613 214.117 45.0307 214.245 45.372C214.415 45.7987 214.607 46.0973 214.821 46.268C214.394 46.268 213.903 46.5667 213.349 47.164C212.794 47.7613 212.175 48.4867 211.493 49.34C210.81 50.236 210.042 51.196 209.189 52.22C208.335 53.244 207.397 54.204 206.373 55.1C205.349 55.996 204.218 56.7427 202.981 57.34C201.786 57.98 200.463 58.3 199.013 58.3C197.69 58.3 196.453 58.0867 195.301 57.66C194.149 57.2333 193.125 56.636 192.229 55.868C191.375 55.1 190.693 54.204 190.181 53.18C189.711 52.156 189.477 51.068 189.477 49.916C189.477 48.764 189.647 47.676 189.989 46.652C190.33 45.6707 190.778 44.796 191.333 44.028C191.93 43.26 192.613 42.6627 193.381 42.236C194.149 41.8093 194.981 41.596 195.877 41.596C196.559 41.596 197.242 41.8093 197.925 42.236C198.65 42.6627 199.205 43.196 199.589 43.836C199.162 43.7507 198.821 43.708 198.565 43.708C197.797 43.708 197.093 43.8787 196.453 44.22C195.813 44.5187 195.237 44.9453 194.725 45.5C194.255 46.0547 193.871 46.6947 193.573 47.42C193.317 48.188 193.189 48.9773 193.189 49.788C193.189 50.5987 193.338 51.3667 193.637 52.092C193.935 52.8173 194.341 53.4573 194.853 54.012C195.365 54.5667 195.962 55.0147 196.645 55.356C197.327 55.74 198.053 55.9747 198.821 56.06H199.397C200.293 56.0173 201.082 55.8467 201.765 55.548C202.447 55.2493 203.045 54.844 203.557 54.332C203.77 54.1187 204.026 53.6067 204.325 52.796C204.623 51.9853 204.773 50.6413 204.773 48.764V18.044C204.773 17.3187 204.623 16.8067 204.325 16.508C204.026 16.1667 203.706 15.996 203.365 15.996C202.853 15.996 202.597 15.7187 202.597 15.164C202.597 14.652 202.853 14.396 203.365 14.396C203.834 14.396 204.239 14.6093 204.581 15.036C204.965 15.42 205.157 15.996 205.157 16.764V51.9C205.541 51.0467 205.818 50.1293 205.989 49.148C206.159 48.2093 206.266 47.292 206.309 46.396C206.394 45.5 206.437 44.668 206.437 43.9C206.437 43.0893 206.437 42.428 206.437 41.916V41.724V17.66C206.437 16.9347 206.373 16.316 206.245 15.804C206.117 15.292 205.989 14.8867 205.861 14.588C205.69 14.2467 205.519 13.9907 205.349 13.82C205.349 13.0947 205.733 12.284 206.501 11.388C207.311 10.4493 208.271 9.55333 209.381 8.7C207.973 8.444 206.607 8.20933 205.285 7.996C204.005 7.78267 202.81 7.59067 201.701 7.42C200.634 7.20667 199.674 7.05733 198.821 6.972C198.01 6.844 197.391 6.78 196.965 6.78C195.557 6.78 194.341 6.972 193.317 7.356C192.293 7.74 191.461 8.252 190.821 8.892C190.181 9.48933 189.711 10.1933 189.413 11.004C189.114 11.8147 188.965 12.6467 188.965 13.5C188.965 14.3107 189.221 15.1213 189.733 15.932C190.287 16.7 191.013 17.2547 191.909 17.596C192.805 17.9373 193.807 17.98 194.917 17.724C196.069 17.4253 197.221 16.6147 198.373 15.292C198.117 15.932 197.498 16.636 196.517 17.404C195.535 18.172 194.149 18.556 192.357 18.556C191.631 18.556 190.927 18.4067 190.245 18.108C189.562 17.8093 188.965 17.4253 188.453 16.956C187.941 16.444 187.535 15.868 187.237 15.228C186.938 14.588 186.789 13.9053 186.789 13.18C186.789 12.284 187.002 11.132 187.429 9.724C187.855 8.316 188.581 6.95067 189.605 5.628C190.629 4.30533 191.951 3.17466 193.573 2.236C195.237 1.25466 197.285 0.763996 199.717 0.763996C200.357 0.763996 201.317 0.84933 202.597 1.02C203.919 1.19066 205.391 1.404 207.013 1.66C208.677 1.87333 210.426 2.12933 212.261 2.428C214.138 2.684 215.951 2.94 217.701 3.196C219.45 3.40933 221.071 3.60133 222.565 3.772C224.058 3.94267 225.295 4.028 226.277 4.028C227.727 4.028 228.837 3.94267 229.605 3.772C230.415 3.60133 231.013 3.388 231.397 3.132C231.823 2.876 232.101 2.62 232.229 2.364C232.399 2.06533 232.57 1.83066 232.741 1.66ZM209.637 20.988L209.893 22.204L210.213 20.988L209.893 12.412L209.637 20.988ZM210.213 28.924L209.893 27.708L209.637 28.924L209.893 45.948L210.213 28.924ZM210.853 24.956L209.893 22.652L208.933 24.956L209.893 27.26L210.853 24.956ZM232.966 15.932C233.904 15.164 234.758 14.4813 235.526 13.884C236.294 13.2867 236.763 12.988 236.934 12.988C236.806 13.2013 236.656 13.4787 236.486 13.82C236.358 14.1187 236.23 14.524 236.102 15.036C236.016 15.548 235.952 16.1667 235.91 16.892V26.94C235.91 28.4333 235.163 29.5853 233.67 30.396L231.046 31.804C230.235 32.2307 229.296 32.444 228.23 32.444C229.126 31.7613 229.638 30.844 229.766 29.692V21.244L228.422 21.948C227.526 22.4173 226.758 23.0147 226.118 23.74C225.52 24.4227 225.051 25.1693 224.71 25.98V39.932C224.71 41.4253 224.176 42.7693 223.11 43.964L224.71 45.5H221.446H220.87H217.414C217.627 45.3293 217.819 45.0093 217.99 44.54C218.118 44.1987 218.246 43.708 218.374 43.068C218.502 42.428 218.566 41.6173 218.566 40.636V23.164C218.566 21.7133 219.099 20.348 220.166 19.068L218.566 17.532H225.862C225.648 17.788 225.456 18.1293 225.286 18.556C225.115 18.94 224.966 19.4307 224.838 20.028C224.752 20.6253 224.71 21.3933 224.71 22.332C225.392 20.6253 226.63 19.2813 228.422 18.3C228.934 18.0013 229.36 17.8093 229.702 17.724C230.043 17.596 230.363 17.468 230.662 17.34C231.003 17.212 231.344 17.0627 231.686 16.892C232.027 16.6787 232.454 16.3587 232.966 15.932ZM221.382 29.052L221.638 30.076L221.894 29.052L221.638 20.668L221.382 29.052ZM221.894 33.98L221.638 32.956L221.382 33.98L221.638 42.364L221.894 33.98ZM222.15 31.548L221.638 30.332L221.126 31.548L221.638 32.764L222.15 31.548ZM232.966 26.556L232.838 20.668L232.646 26.556H232.966ZM238.753 17.532H245.985C245.772 17.7453 245.58 18.0867 245.409 18.556C245.239 18.94 245.089 19.452 244.961 20.092C244.876 20.6893 244.833 21.4573 244.833 22.396V39.932C244.833 41.468 244.321 42.812 243.297 43.964L244.833 45.5H237.601C237.815 45.3293 238.007 45.0093 238.177 44.54C238.305 44.1987 238.433 43.708 238.561 43.068C238.689 42.428 238.753 41.6173 238.753 40.636V23.164C238.753 21.7133 239.265 20.348 240.289 19.068L238.753 17.532ZM242.017 33.98L241.825 32.956L241.569 33.98L241.825 42.364L242.017 33.98ZM241.569 29.052L241.825 30.076L242.017 29.052L241.825 20.668L241.569 29.052ZM241.313 31.548L241.825 32.764L242.273 31.548L241.825 30.332L241.313 31.548ZM247.265 8.7C247.052 8.91333 246.86 9.148 246.689 9.404C246.519 9.66 246.369 9.98 246.241 10.364C246.156 10.7053 246.113 11.1533 246.113 11.708C246.113 12.6893 245.751 13.5427 245.025 14.268C244.343 14.9507 243.511 15.292 242.529 15.292H239.457C239.671 15.1213 239.863 14.908 240.033 14.652C240.161 14.4387 240.289 14.14 240.417 13.756C240.545 13.372 240.609 12.9027 240.609 12.348C240.609 11.324 240.951 10.4707 241.633 9.788C242.359 9.06266 243.212 8.7 244.193 8.7H247.265ZM266.185 17.532C265.972 17.7453 265.78 18.0867 265.609 18.556C265.481 18.94 265.353 19.452 265.225 20.092C265.14 20.6893 265.097 21.4573 265.097 22.396V39.932C265.097 41.4253 264.564 42.7693 263.497 43.964L265.097 45.5H246.601C246.815 45.3293 247.007 45.0093 247.177 44.54C247.305 44.1987 247.433 43.708 247.561 43.068C247.689 42.428 247.753 41.6173 247.753 40.636V11.772C247.753 11.0893 247.817 10.4493 247.945 9.852C248.116 9.212 248.457 8.636 248.969 8.124L246.857 8.252C246.943 8.16666 247.369 7.78266 248.137 7.1C248.948 6.37466 249.823 5.628 250.761 4.86C251.743 4.04933 252.66 3.324 253.513 2.684C254.367 2.044 254.879 1.724 255.049 1.724C254.836 1.93733 254.644 2.27866 254.473 2.748C254.303 3.132 254.153 3.644 254.025 4.284C253.94 4.88133 253.897 5.64933 253.897 6.588V21.18C254.665 20.0707 255.732 19.1533 257.097 18.428C258.164 17.8307 259.316 17.532 260.553 17.532H266.185ZM250.569 29.052L250.825 30.076L251.081 29.052L250.825 9.596L250.569 29.052ZM251.081 33.98L250.825 32.956L250.569 33.98L250.825 42.364L251.081 33.98ZM251.337 31.548L250.825 30.332L250.313 31.548L250.825 32.764L251.337 31.548ZM258.953 20.22C258.569 20.4333 258.143 20.668 257.673 20.924C257.204 21.18 256.735 21.5 256.265 21.884C255.796 22.2253 255.348 22.652 254.921 23.164C254.537 23.676 254.196 24.2947 253.897 25.02V43.644H258.697L256.905 42.364C258.271 41.34 258.953 40.0387 258.953 38.46V20.22ZM261.769 29.052L262.025 30.076L262.281 29.052L262.025 20.668L261.769 29.052ZM262.281 33.98L262.025 32.956L261.769 33.98L262.025 42.364L262.281 33.98ZM262.537 31.548L262.025 30.332L261.513 31.548L262.025 32.764L262.537 31.548ZM286.499 17.532C286.286 17.7453 286.094 18.0867 285.923 18.556C285.753 18.94 285.603 19.452 285.475 20.092C285.39 20.6893 285.347 21.4573 285.347 22.396V39.932C285.347 41.4253 284.814 42.7693 283.747 43.964L285.347 45.5H266.851C267.065 45.3293 267.257 45.0093 267.427 44.54C267.555 44.1987 267.683 43.708 267.811 43.068C267.939 42.428 268.003 41.6173 268.003 40.636V35.644C268.003 34.7907 268.259 33.98 268.771 33.212C269.283 32.4013 269.966 31.7613 270.819 31.292L276.387 28.22C277.283 27.7507 277.966 27.132 278.435 26.364C278.947 25.5533 279.203 24.7213 279.203 23.868V19.388H277.795C276.771 19.388 275.897 19.6867 275.171 20.284C274.489 20.8813 274.147 21.6067 274.147 22.46V24.316C274.147 25.1693 273.891 26.0013 273.379 26.812C272.867 27.58 272.185 28.1987 271.331 28.668L268.003 30.46V23.164C268.003 21.7133 268.537 20.348 269.603 19.068L268.003 17.532H279.203H281.251H286.499ZM271.267 26.556L271.075 20.668L270.883 26.556H271.267ZM271.267 34.62H270.883L271.075 42.364L271.267 34.62ZM277.155 42.364C278.521 41.34 279.203 40.0387 279.203 38.46V29.308L276.963 30.524C276.067 30.9933 275.363 31.6333 274.851 32.444C274.382 33.2547 274.147 34.108 274.147 35.004V43.644H278.947L277.155 42.364ZM282.019 29.052L282.275 30.076L282.531 29.052L282.275 20.668L282.019 29.052ZM282.531 33.98L282.275 32.956L282.019 33.98L282.275 42.364L282.531 33.98ZM282.787 31.548L282.275 30.332L281.763 31.548L282.275 32.764L282.787 31.548ZM287.981 8.252C288.066 8.16666 288.514 7.78266 289.325 7.1C290.135 6.37466 291.01 5.628 291.949 4.86C292.93 4.04933 293.826 3.324 294.637 2.684C295.49 2.044 296.002 1.724 296.173 1.724C295.959 1.93733 295.767 2.27866 295.597 2.748C295.426 3.132 295.277 3.644 295.149 4.284C295.063 4.88133 295.021 5.64933 295.021 6.588V39.932C295.021 41.3827 294.509 42.7267 293.485 43.964L295.021 45.5H287.789C288.002 45.3293 288.194 45.0093 288.365 44.54C288.493 44.1987 288.621 43.708 288.749 43.068C288.877 42.428 288.941 41.6173 288.941 40.636V11.772C288.941 11.0893 289.005 10.4493 289.133 9.852C289.303 9.212 289.623 8.636 290.093 8.124L287.981 8.252ZM291.693 29.052L291.949 30.076L292.205 29.052L291.949 9.596L291.693 29.052ZM292.205 33.98L291.949 32.956L291.693 33.98L291.949 42.364L292.205 33.98ZM292.461 31.548L291.949 30.332L291.437 31.548L291.949 32.764L292.461 31.548Z"
        fill="#bab6ad" />
</svg>