<?xml version="1.0" standalone="no"?>
<!DOCTYPE svg PUBLIC "-//W3C//DTD SVG 20010904//EN"
 "http://www.w3.org/TR/2001/REC-SVG-20010904/DTD/svg10.dtd">
<svg version="1.0" xmlns="http://www.w3.org/2000/svg"
 width="2482.000000pt" height="3509.000000pt" viewBox="0 0 2482.000000 3509.000000"
 preserveAspectRatio="xMidYMid meet">

<g transform="translate(0.000000,3509.000000) scale(0.100000,-0.100000)"
fill="#e4dace" stroke="none">
<path d="M12397 23654 c-10 -98 -61 -184 -174 -296 -81 -81 -116 -107 -203
-153 -647 -346 -1150 -1038 -1359 -1871 -16 -65 -35 -148 -41 -184 -6 -36 -14
-76 -17 -89 -5 -20 5 -15 62 34 313 265 824 435 1312 435 l122 0 137 -162 c75
-90 146 -173 158 -186 l20 -23 -105 -107 c-148 -152 -193 -201 -188 -205 2 -2
43 -1 90 2 l87 6 -18 -25 c-27 -39 -52 -91 -69 -145 -13 -44 -16 -245 -21
-1670 l-5 -1620 -23 -79 c-12 -43 -33 -99 -46 -122 l-25 -44 836 0 835 0 -50
58 c-27 31 -59 65 -71 76 l-20 18 30 45 c40 58 74 134 94 208 13 51 15 180 15
970 0 512 4 967 10 1041 11 140 36 257 70 323 l20 41 -277 0 c-205 0 -296 -4
-348 -15 -146 -30 -333 -151 -432 -277 l-48 -61 -3 74 c-2 41 -1 403 1 804 3
711 4 733 26 829 12 55 28 115 36 133 17 41 -7 43 265 -23 289 -71 552 -163
852 -299 67 -30 124 -53 126 -50 8 8 -48 213 -105 380 -227 670 -593 1226
-1048 1590 -75 60 -160 119 -321 222 -51 33 144 -62 231 -112 628 -361 1047
-985 1271 -1895 26 -102 47 -186 48 -187 2 -2 44 24 94 57 713 470 1615 530
2682 179 152 -50 418 -151 534 -203 33 -14 61 -25 63 -23 6 6 -147 213 -238
322 -111 133 -366 387 -509 506 -490 409 -1048 724 -1712 965 -717 260 -1564
419 -2348 440 -118 3 -220 7 -226 9 -8 2 -9 20 -2 62 6 38 6 84 -1 133 -11 73
-46 197 -61 213 -4 4 -10 -18 -13 -49z m801 -5189 l-3 -740 -37 -78 c-22 -45
-58 -100 -88 -131 l-50 -53 62 -49 c34 -27 69 -54 77 -61 13 -10 -28 -12 -196
-13 l-213 0 0 924 0 924 40 79 c73 141 165 236 332 339 l73 45 3 -223 c1 -123
1 -556 0 -963z"/>
<path d="M11540 23269 c-881 -58 -1660 -254 -2355 -593 -243 -118 -373 -192
-573 -322 -397 -260 -766 -586 -1061 -938 -78 -92 -243 -308 -239 -311 2 -2
82 36 178 84 355 176 652 273 1010 328 162 25 549 25 710 0 396 -62 754 -191
1139 -411 63 -36 116 -64 119 -62 2 2 15 53 28 113 66 292 154 543 279 799
243 494 592 861 1170 1228 77 49 142 91 144 92 8 7 -423 1 -549 -7z"/>
<path d="M4612 21043 c27 -54 53 -120 68 -175 38 -139 42 -224 38 -1008 -4
-743 -4 -756 -26 -834 -12 -43 -35 -102 -50 -131 l-29 -52 276 -138 c448 -223
749 -406 967 -589 289 -243 440 -502 495 -851 15 -90 15 -521 0 -620 l-8 -60
-2 58 c-8 359 -133 771 -318 1052 -88 133 -292 337 -422 424 -283 188 -592
283 -915 283 -195 -1 -335 -37 -389 -102 -33 -39 -34 -64 -2 -95 40 -41 88
-35 139 18 22 24 53 58 67 77 l26 35 199 -1 c220 0 316 -15 496 -75 457 -153
812 -516 966 -989 117 -356 145 -847 67 -1169 -96 -394 -338 -699 -642 -811
-219 -79 -507 -82 -731 -6 -421 144 -752 546 -848 1032 -24 120 -25 402 -1
529 83 451 333 808 665 946 109 45 200 61 318 57 89 -3 107 -7 167 -36 91 -45
161 -117 206 -211 34 -71 36 -82 36 -171 0 -87 -3 -100 -32 -156 -18 -34 -74
-117 -125 -185 -201 -270 -254 -387 -246 -542 3 -66 11 -97 35 -148 37 -80
136 -189 248 -272 l80 -60 6 107 c6 96 10 114 42 179 38 75 104 161 249 321
103 114 159 195 188 274 19 50 21 70 17 167 -19 388 -294 732 -699 874 -280
97 -569 88 -837 -27 -407 -176 -709 -586 -803 -1090 -28 -152 -30 -401 -5
-542 130 -710 750 -1244 1548 -1331 136 -15 358 -6 470 20 260 59 511 187 767
392 42 34 237 222 432 418 341 343 387 383 461 405 14 4 11 14 -17 72 -65 135
-69 183 -69 884 0 705 4 756 71 888 18 37 30 70 26 74 -4 4 -187 84 -407 178
-424 182 -783 353 -927 441 -246 152 -377 304 -409 475 -17 91 -6 729 15 817
60 264 286 387 759 413 l128 7 -3 -524 -4 -524 -26 -95 c-14 -52 -42 -133 -61
-178 -20 -46 -30 -82 -24 -79 7 2 147 46 312 96 165 51 321 104 348 119 63 34
132 109 165 180 l27 57 6 580 c5 468 10 594 22 650 19 88 41 148 69 193 21 34
21 35 2 28 -66 -28 -246 -89 -316 -107 -173 -44 -295 -59 -593 -69 -316 -11
-431 -22 -539 -52 -138 -38 -297 -126 -435 -242 l-55 -45 -50 42 c-28 23 -105
94 -171 157 -244 234 -293 278 -365 328 -68 48 -97 63 -88 45z m2156 -1498
l-15 -50 -12 59 c-10 46 -11 132 -2 415 6 196 12 385 13 421 0 36 8 -128 16
-365 13 -379 13 -436 0 -480z m-1649 -68 c10 -422 10 -429 34 -481 48 -105
169 -200 454 -357 84 -46 151 -85 149 -86 -5 -5 -282 124 -356 165 -153 84
-252 169 -292 251 -23 45 -23 53 -21 366 1 330 16 792 20 650 2 -44 7 -273 12
-508z m1207 -1205 c129 -65 300 -179 367 -245 96 -95 91 -50 78 -686 -6 -306
-12 -608 -12 -671 -2 -238 -8 -65 -19 570 -10 557 -14 659 -27 685 -23 44
-136 151 -237 222 -48 34 -157 101 -242 148 -85 48 -154 89 -154 90 0 5 127
-53 246 -113z"/>
<path d="M20135 21013 c-68 -45 -144 -112 -325 -288 -97 -93 -199 -189 -227
-213 l-52 -43 -38 34 c-63 57 -194 147 -265 183 -169 85 -299 109 -638 119
-341 9 -482 24 -680 75 -68 17 -248 78 -314 105 -17 7 -16 3 7 -36 30 -53 52
-121 68 -209 7 -41 14 -271 18 -635 l6 -570 27 -58 c33 -69 112 -155 170 -184
24 -12 178 -63 343 -114 165 -50 305 -94 312 -96 6 -3 -4 32 -23 76 -19 44
-47 124 -62 178 l-26 98 -4 524 -3 524 128 -7 c234 -13 375 -41 501 -101 95
-45 183 -128 221 -209 48 -102 56 -175 56 -566 0 -400 -2 -416 -74 -527 -89
-137 -270 -274 -557 -420 -186 -95 -339 -164 -784 -355 -179 -77 -328 -142
-332 -146 -4 -4 6 -34 22 -67 69 -140 80 -263 80 -895 0 -639 -11 -758 -80
-893 -26 -52 -27 -59 -12 -63 85 -25 136 -71 567 -514 206 -212 339 -327 509
-441 277 -187 525 -274 811 -286 642 -26 1275 300 1595 822 163 266 239 592
211 899 -27 287 -112 539 -254 754 -332 502 -878 705 -1405 521 -326 -114
-564 -352 -667 -669 -25 -74 -28 -101 -29 -215 l-1 -131 37 -75 c35 -72 93
-145 273 -348 138 -155 174 -231 184 -384 l6 -99 81 60 c110 83 205 186 245
267 28 57 34 81 37 154 7 152 -41 261 -227 511 -136 182 -173 253 -179 346 -9
145 63 289 188 372 80 54 143 72 249 72 151 0 301 -47 436 -135 86 -56 244
-217 305 -310 283 -435 316 -1014 84 -1473 -185 -364 -505 -618 -867 -687
-113 -21 -319 -19 -432 4 -195 40 -325 110 -466 250 -168 167 -286 400 -341
673 -20 99 -23 143 -23 353 1 261 14 391 62 585 80 328 211 569 427 786 218
217 462 348 776 415 88 19 137 23 304 23 l199 1 26 -35 c14 -19 45 -53 67 -77
51 -53 99 -59 139 -18 35 34 31 62 -13 105 -126 119 -543 124 -885 10 -678
-227 -1095 -821 -1146 -1634 l-7 -111 -9 100 c-16 171 -11 516 9 630 100 561
455 901 1463 1404 l271 136 -20 27 c-28 39 -55 123 -73 224 -22 126 -22 1521
0 1667 14 95 56 239 77 264 19 23 -15 15 -57 -14z m-2055 -1013 c8 -305 8
-408 -1 -450 l-12 -55 -15 45 c-11 36 -12 93 -8 285 8 300 19 605 23 585 1 -8
7 -193 13 -410z m1651 -435 l12 -520 -28 -63 c-54 -121 -195 -224 -504 -366
-79 -36 -146 -65 -147 -63 -2 2 65 41 149 86 275 151 400 249 452 355 24 51
25 54 35 456 5 223 10 459 10 524 0 66 2 117 4 115 3 -2 10 -238 17 -524z
m-991 -1179 c0 -2 -55 -34 -122 -71 -277 -153 -461 -295 -512 -393 -12 -23
-17 -131 -25 -563 -6 -293 -11 -583 -11 -643 0 -60 -2 -107 -4 -105 -2 2 -10
290 -16 640 -10 509 -10 643 0 673 30 93 241 249 513 382 182 88 177 86 177
80z"/>
<path d="M15629 20348 c-51 -36 -120 -95 -269 -227 -126 -113 -179 -148 -288
-191 -205 -81 -362 -215 -457 -389 l-36 -66 6 94 c8 125 29 222 65 299 l29 62
-332 0 -331 0 50 -52 c27 -29 60 -65 72 -79 l23 -26 -40 -64 c-22 -35 -52
-100 -68 -144 l-28 -80 -6 -1030 c-6 -1135 -4 -1102 -69 -1242 l-29 -63 325 0
c178 0 324 3 324 7 0 4 -30 38 -67 75 -64 65 -67 69 -54 91 8 12 27 43 43 68
16 25 41 79 56 120 l27 74 5 765 5 765 24 45 c75 142 195 265 332 342 l84 47
3 -426 c2 -366 0 -435 -14 -483 -16 -58 -60 -134 -94 -165 -11 -10 -20 -21
-20 -25 0 -3 33 -3 73 2 86 10 144 36 328 146 156 93 224 158 261 250 23 57
23 59 29 672 5 587 7 619 27 698 12 45 31 100 42 122 11 22 19 40 17 40 -2 0
-24 -14 -48 -32z"/>
<path d="M7440 19893 c19 -21 52 -56 73 -79 l38 -41 -31 -46 c-17 -25 -42 -71
-56 -102 -55 -125 -54 -104 -54 -1120 0 -551 -4 -979 -10 -1035 -14 -135 -35
-210 -88 -312 -2 -5 370 -8 827 -8 457 0 831 4 831 8 0 4 -29 37 -65 72 -36
35 -65 68 -65 73 0 5 14 28 31 53 35 51 65 116 88 189 13 43 16 192 21 1085 6
1022 6 1036 28 1118 12 45 33 105 47 132 l25 50 -837 0 -837 0 34 -37z m980
-1126 c0 -1071 2 -1029 -62 -1150 -18 -33 -52 -81 -76 -109 -25 -27 -43 -50
-41 -51 30 -21 139 -110 139 -113 0 -2 -92 -4 -205 -4 l-205 0 2 1093 3 1092
23 42 c42 80 121 141 209 162 21 5 77 9 126 10 l87 1 0 -973z"/>
<path d="M9316 19908 c10 -13 41 -47 68 -75 l50 -52 -47 -90 c-91 -172 -87
-114 -87 -1185 0 -552 -4 -980 -10 -1036 -15 -136 -33 -203 -88 -313 -2 -5 90
-7 204 -5 188 3 214 5 255 24 64 30 125 88 157 148 l27 51 5 915 5 915 24 45
c73 138 173 243 322 339 51 34 97 61 101 61 4 0 8 -425 8 -946 0 -1051 1
-1028 -66 -1141 -19 -32 -54 -77 -77 -101 l-42 -43 30 -26 c17 -14 45 -39 63
-55 l34 -29 -32 -49 c-17 -27 -48 -63 -68 -79 l-37 -30 374 -1 374 0 -24 28
c-13 15 -44 48 -69 75 l-44 47 17 28 c43 66 80 150 98 220 18 71 19 117 19
856 l0 780 42 86 c56 112 181 241 315 323 51 32 95 57 98 57 3 0 5 -429 5
-953 0 -1036 2 -1006 -56 -1119 -14 -28 -49 -76 -77 -106 -51 -53 -51 -54 -31
-70 104 -85 107 -88 90 -119 -8 -16 -35 -52 -60 -80 l-45 -50 86 -7 c118 -9
214 -32 303 -73 117 -53 287 -172 365 -254 38 -41 65 -65 61 -54 -28 65 -68
221 -77 299 -7 61 -9 495 -6 1326 3 1220 4 1236 25 1330 12 52 34 121 50 152
l29 58 -274 0 c-210 0 -292 -4 -350 -16 -147 -30 -259 -97 -397 -237 l-88 -90
7 54 c12 93 34 177 60 229 14 27 25 52 25 56 0 3 -138 4 -307 2 -289 -4 -312
-6 -373 -27 -36 -13 -78 -30 -95 -38 -73 -38 -182 -122 -252 -197 l-76 -81 7
60 c10 81 43 203 67 243 10 18 19 35 19 38 0 2 -147 4 -327 4 l-326 0 19 -22z"/>
<path d="M15891 19873 c100 -105 96 -91 50 -164 -22 -35 -52 -100 -68 -144
l-28 -80 -3 -417 c-2 -258 0 -418 6 -418 5 0 83 44 173 97 307 181 379 294
379 593 0 169 13 219 76 289 70 78 133 104 265 109 l109 5 0 -255 c0 -277 -7
-327 -58 -422 -54 -102 -125 -158 -437 -346 -306 -184 -372 -234 -437 -334
-70 -108 -71 -115 -78 -561 -8 -438 -14 -493 -70 -612 l-29 -63 837 0 836 0
-55 58 c-98 102 -95 96 -66 134 40 54 77 135 98 216 18 72 19 119 19 1021 0
574 4 981 10 1036 15 133 37 207 88 308 2 4 -373 7 -834 7 l-838 0 55 -57z
m949 -2127 c-16 -73 -68 -172 -122 -232 l-48 -52 76 -61 77 -61 -212 0 -211 0
0 458 c0 497 2 515 58 630 43 89 121 162 262 247 l125 75 3 -477 c1 -306 -1
-496 -8 -527z"/>
<path d="M17100 17061 c-9 -3 -48 -28 -88 -54 -138 -93 -255 -124 -432 -114
-122 7 -190 20 -390 77 -259 73 -325 84 -515 84 -149 1 -180 -2 -250 -22 -332
-96 -545 -346 -545 -639 0 -212 138 -375 366 -433 93 -24 149 -25 246 -5 73
15 262 74 256 80 -2 2 -43 13 -92 24 -101 24 -232 83 -291 130 -94 76 -128
162 -106 269 36 182 191 317 411 359 123 23 350 13 590 -27 168 -27 348 -50
404 -50 32 -1 -91 -77 -216 -134 l-105 -49 28 -51 c66 -123 63 -59 66 -1250 3
-1031 3 -1078 -14 -1071 -39 15 -199 55 -221 55 -26 0 -233 -140 -339 -230
-150 -125 -185 -239 -117 -377 30 -62 79 -107 154 -142 45 -21 70 -25 140 -26
103 0 166 21 210 71 27 31 42 71 23 62 -5 -2 -37 -18 -73 -37 -123 -64 -257
-52 -345 33 -87 84 -76 194 26 264 54 38 146 28 342 -38 86 -29 157 -54 157
-57 0 -2 -5 -13 -10 -24 -12 -22 -5 -24 29 -5 22 12 39 7 190 -54 91 -37 267
-111 391 -165 865 -374 1031 -443 1137 -465 86 -19 204 19 341 109 103 68 247
188 280 234 28 39 45 101 36 129 -6 20 -8 19 -31 -11 -51 -65 -128 -85 -273
-70 -124 13 -190 36 -854 296 -302 118 -597 232 -655 255 -58 22 -117 44 -130
49 -22 9 -20 12 45 62 38 28 104 73 146 98 53 32 73 49 62 53 -8 3 -23 23 -32
43 -16 35 -17 132 -17 1293 0 1174 1 1259 18 1320 10 35 29 84 42 109 27 48
28 52 5 42z m-290 -1499 c1 -166 -2 -452 -7 -635 l-8 -332 -6 240 c-9 358 -10
975 -1 1275 l7 265 7 -255 c3 -140 7 -391 8 -558z"/>
<path d="M12936 16996 c-96 -72 -352 -287 -436 -366 l-55 -51 84 6 84 7 -22
-28 c-11 -15 -31 -57 -43 -93 l-23 -66 -5 -1175 c-7 -1285 -4 -1230 -65 -1350
l-25 -50 727 0 727 0 -62 63 -62 62 35 49 c19 27 45 74 57 105 23 56 23 56 28
811 5 688 7 762 24 830 10 41 27 92 37 112 11 21 19 40 19 43 0 12 -486 4
-551 -9 -121 -26 -258 -108 -357 -214 l-53 -57 4 645 c4 550 7 655 21 715 9
38 16 71 16 72 0 12 -32 -7 -104 -61z m462 -2106 l-3 -575 -32 -67 c-17 -37
-53 -90 -78 -117 l-46 -49 58 -43 c32 -23 62 -46 68 -50 5 -5 -74 -9 -178 -9
l-187 0 0 663 0 664 32 64 c44 90 166 209 278 272 l85 47 3 -112 c1 -62 1
-372 0 -688z"/>
<path d="M8280 17023 c-63 -7 -199 -44 -272 -74 -150 -62 -319 -202 -415 -344
-118 -176 -194 -413 -179 -559 18 -172 168 -328 354 -367 174 -36 411 44 513
174 57 72 48 77 -22 13 -33 -31 -93 -73 -132 -94 -70 -36 -75 -37 -182 -37
-100 0 -115 2 -161 27 -66 35 -136 104 -165 165 -18 35 -25 70 -27 130 -15
335 295 553 718 504 157 -18 860 -135 858 -142 -2 -4 -42 -41 -89 -82 -96 -84
-183 -192 -201 -250 -11 -36 -9 -43 19 -95 17 -32 36 -84 43 -117 8 -44 10
-327 7 -1035 -4 -1058 -3 -1034 -61 -1211 l-24 -74 -1 1136 c-1 1247 1 1205
-61 1264 -24 23 -39 29 -77 29 -41 1 -49 -2 -62 -26 -23 -41 0 -78 55 -93 51
-12 73 -30 91 -72 21 -51 19 -2115 -2 -2236 -28 -159 -80 -235 -200 -291 -276
-130 -605 28 -675 323 -17 74 -8 211 20 283 46 122 147 222 265 263 31 10 80
17 129 17 l79 0 -53 53 c-156 158 -371 151 -548 -18 -106 -102 -168 -231 -193
-397 -50 -342 175 -634 557 -726 90 -22 274 -22 372 0 101 22 235 74 325 126
118 67 228 154 417 331 176 163 248 219 283 219 15 0 18 5 13 23 -30 101 -48
185 -57 262 -10 90 -9 2328 1 2338 3 3 62 -4 132 -14 466 -68 784 -92 921 -70
40 7 58 18 104 62 64 63 173 205 231 303 67 112 111 250 94 296 -7 19 -11 17
-39 -22 -70 -97 -189 -131 -463 -131 -231 0 -390 17 -1165 128 -324 47 -648
92 -720 100 -120 14 -270 17 -355 8z"/>
<path d="M11989 16486 c-122 -33 -194 -134 -209 -296 -9 -92 -33 -163 -69
-199 l-21 -21 145 0 c170 0 228 16 295 81 57 55 80 112 91 225 9 96 30 156 72
202 l20 22 -139 -1 c-76 0 -160 -6 -185 -13z"/>
<path d="M16228 16398 c-43 -34 -15 -108 41 -108 38 0 70 -26 92 -74 18 -39
19 -82 20 -831 0 -598 3 -783 12 -760 8 21 12 271 14 843 4 790 3 814 -16 857
-31 70 -118 108 -163 73z"/>
<path d="M11519 16219 c-41 -28 -121 -88 -179 -133 -149 -117 -176 -133 -296
-177 -187 -68 -320 -164 -404 -292 l-40 -62 0 55 c0 80 25 184 59 246 l29 54
-299 0 c-164 0 -299 -2 -299 -5 0 -3 27 -31 60 -63 l60 -57 -39 -57 c-22 -32
-50 -84 -63 -115 l-23 -58 -6 -755 c-6 -819 -5 -813 -62 -915 -15 -26 -27 -49
-27 -51 0 -2 136 -4 303 -4 l302 0 -62 61 c-35 34 -63 63 -63 65 0 1 18 29 40
60 80 114 80 118 80 703 l0 517 36 59 c75 126 146 190 297 270 l87 47 0 -346
c0 -392 -3 -411 -81 -500 l-41 -46 29 0 c102 1 411 140 505 228 98 91 92 57
99 622 6 535 9 559 64 657 13 24 20 43 16 43 -4 0 -41 -23 -82 -51z"/>
<path d="M11745 15845 l57 -64 -20 -28 c-27 -39 -67 -120 -83 -168 -10 -31
-14 -217 -19 -805 -6 -752 -6 -766 -27 -830 -13 -36 -29 -74 -37 -85 -9 -11
-16 -23 -16 -27 0 -5 126 -8 280 -8 154 0 280 3 280 7 0 4 -25 33 -55 63 l-56
57 35 52 c20 29 46 83 58 119 22 66 22 74 28 832 5 753 6 766 27 830 12 36 29
74 37 85 9 11 16 23 16 28 0 4 -126 7 -281 7 l-281 0 57 -65z"/>
<path d="M14115 15867 c27 -23 60 -51 72 -62 l22 -20 -44 -57 c-24 -32 -54
-84 -67 -115 -22 -56 -23 -69 -26 -395 l-3 -338 23 9 c88 35 332 159 374 191
60 45 117 120 140 181 11 28 19 95 23 186 6 138 7 142 37 184 61 83 182 129
343 129 l73 0 -4 -217 c-3 -214 -4 -219 -31 -274 -48 -100 -109 -149 -306
-248 -204 -103 -466 -226 -565 -266 -107 -44 -106 -40 -106 -340 -1 -334 -17
-454 -75 -539 -14 -20 -25 -39 -25 -41 0 -3 375 -5 833 -5 l832 1 -69 63 -70
63 36 44 c38 46 59 85 86 153 15 36 17 127 22 796 5 746 6 756 28 821 12 36
33 82 47 103 l24 36 -837 0 -837 0 50 -43z m963 -1282 l-3 -270 -29 -60 c-17
-35 -54 -84 -88 -118 l-59 -57 71 -46 c38 -25 70 -47 70 -49 0 -3 -92 -5 -205
-5 l-206 0 3 318 3 317 30 58 c46 92 124 157 279 231 l131 63 3 -56 c2 -31 2
-177 0 -326z"/>
<path d="M16370 14555 c0 -9 -7 -31 -15 -51 l-14 -35 -32 16 c-38 20 -73 13
-95 -20 -19 -29 -11 -60 21 -81 33 -22 61 -10 88 37 12 22 30 39 40 39 14 0
17 9 17 55 0 30 -2 55 -5 55 -3 0 -5 -7 -5 -15z"/>
<path d="M9646 13758 c-9 -12 -16 -41 -16 -63 0 -60 29 -106 86 -135 l48 -25
2752 -5 2753 -5 28 -21 c35 -26 53 -60 53 -100 0 -35 32 -74 60 -74 10 0 28
12 40 28 17 21 21 36 17 71 -6 57 -32 90 -93 121 l-49 25 -2745 5 c-2561 5
-2747 6 -2776 22 -32 17 -48 47 -58 107 -12 67 -69 94 -100 49z"/>
<path d="M13399 13439 c-35 -23 -117 -80 -183 -128 l-118 -86 42 -3 c42 -3 42
-3 23 -24 -14 -15 -19 -40 -22 -104 l-3 -84 -261 0 -262 0 37 -30 37 -31 -32
-45 -32 -46 -5 -436 c-5 -461 -3 -438 -48 -524 -2 -5 189 -8 424 -8 l428 0
-34 35 c-31 32 -32 36 -18 52 9 10 24 34 34 53 18 33 19 75 24 705 5 624 6
672 23 703 10 19 17 36 14 38 -2 2 -33 -14 -68 -37z m-259 -896 c0 -357 -2
-391 -19 -429 -10 -23 -32 -53 -47 -68 -31 -29 -32 -28 23 -63 15 -10 -1 -12
-84 -12 l-103 -1 0 439 c0 420 1 439 20 463 30 39 78 58 148 58 l62 0 0 -387z"/>
<path d="M15666 13400 c-64 -44 -146 -102 -183 -130 l-66 -50 42 0 41 0 -20
-37 c-14 -27 -20 -57 -20 -105 l0 -68 -257 0 -258 -1 32 -29 33 -29 -33 -52
-32 -52 -5 -436 c-5 -427 -5 -437 -27 -478 l-23 -43 433 0 432 0 -38 33 -39
32 20 25 c49 63 47 34 52 745 5 658 5 671 26 713 12 23 18 42 14 42 -3 0 -59
-36 -124 -80z m-206 -865 c0 -374 -1 -398 -20 -434 -11 -22 -32 -49 -46 -60
-15 -12 -25 -23 -23 -25 2 -2 20 -13 39 -25 l35 -21 -107 0 -108 0 0 430 c0
480 -1 473 68 509 25 14 57 20 100 21 l62 0 0 -395z"/>
<path d="M14725 13321 c-73 -18 -112 -62 -121 -138 -4 -26 -15 -63 -26 -80
l-20 -33 87 0 c139 0 196 39 209 144 4 30 16 66 26 79 11 13 16 27 13 31 -8 8
-130 6 -168 -3z"/>
<path d="M9857 13240 c-156 -40 -257 -186 -222 -324 25 -98 131 -160 229 -135
57 14 65 25 24 33 -42 8 -104 74 -112 120 -14 75 25 150 97 188 55 29 169 30
326 4 l114 -20 -39 -33 c-21 -18 -47 -36 -57 -39 -14 -4 -17 -12 -12 -27 3
-12 11 -40 16 -63 14 -57 6 -1247 -8 -1294 -8 -26 -11 136 -13 605 -1 703 -2
710 -55 710 -39 0 -47 -31 -11 -44 13 -6 30 -19 36 -31 8 -14 10 -210 8 -668
-3 -624 -4 -648 -23 -687 -27 -54 -92 -88 -156 -82 -95 8 -166 81 -176 181
-11 107 64 206 155 206 40 0 42 1 32 20 -18 34 -86 62 -132 55 -82 -14 -158
-116 -173 -232 -25 -187 167 -347 359 -298 108 28 185 93 314 262 34 44 73 90
86 101 24 18 24 20 11 58 -22 60 -21 885 0 969 23 90 80 198 133 252 l47 48 3
-663 c1 -446 -1 -669 -8 -683 -6 -10 -17 -19 -24 -19 -8 0 -19 -7 -26 -15 -10
-12 -10 -18 0 -30 16 -19 23 -19 51 4 l24 19 5 693 c5 650 6 694 23 697 16 3
17 -33 17 -660 -1 -551 -3 -670 -15 -703 -8 -22 -15 -41 -15 -43 0 -8 69 45
110 83 54 51 154 131 169 136 7 3 6 19 -4 53 -22 72 -21 732 0 825 28 119 101
243 166 284 l29 19 -1 -559 c-1 -307 -4 -569 -8 -583 -4 -14 -19 -31 -35 -38
-19 -10 -26 -20 -24 -35 4 -30 24 -32 53 -3 l25 25 0 585 c0 321 3 591 6 600
3 9 12 16 20 16 12 0 14 -98 14 -630 l0 -629 -35 1 c-22 1 -49 -8 -77 -27 -87
-56 -148 -108 -148 -125 0 -16 8 -17 64 -13 72 6 119 -11 253 -92 90 -55 137
-75 173 -75 29 0 121 55 183 109 39 35 52 80 20 66 -67 -28 -130 -16 -239 47
-49 27 -91 52 -94 55 -7 6 88 88 128 110 22 12 30 23 26 33 -22 52 -25 146
-21 692 2 326 8 606 12 622 l8 28 -64 -7 c-201 -21 -343 -98 -421 -229 l-30
-51 6 104 c4 58 9 122 13 144 l6 39 -64 -7 c-198 -21 -328 -89 -415 -219 l-34
-51 0 95 c1 55 7 112 15 135 8 21 13 41 11 42 -2 2 -14 -5 -27 -15 -80 -63
-169 -69 -330 -22 -115 33 -214 44 -272 30z"/>
<path d="M14310 13112 c-75 -51 -142 -87 -194 -106 -98 -34 -139 -60 -195
-121 l-44 -48 6 53 c4 29 15 67 26 86 l20 34 -172 0 -172 0 38 -31 37 -30 -23
-32 c-45 -61 -46 -73 -49 -512 -3 -444 -1 -421 -46 -507 -2 -5 72 -8 164 -8
l168 0 -33 34 -33 34 25 34 c42 56 47 95 47 404 l0 292 46 52 c41 45 143 110
174 110 14 0 13 -320 -1 -357 -5 -15 -22 -41 -37 -57 l-27 -28 45 7 c76 13
223 77 268 119 45 41 47 51 52 326 4 229 7 269 23 298 10 17 14 32 10 32 -5 0
-60 -35 -123 -78z"/>
<path d="M11682 12980 l37 -31 -32 -45 -32 -46 -3 -183 -3 -184 92 42 c152 69
199 129 199 258 0 95 54 139 170 139 l60 0 0 -87 c0 -177 -28 -212 -259 -318
-163 -75 -233 -125 -250 -178 -5 -17 -11 -106 -14 -197 -4 -162 -7 -179 -45
-252 -2 -5 189 -8 425 -8 l428 1 -34 31 c-28 25 -32 34 -23 47 7 9 22 34 34
56 23 39 23 46 28 475 5 427 5 436 27 473 l22 37 -432 0 -432 0 37 -30z m488
-635 c0 -206 -6 -234 -63 -293 -34 -36 -35 -33 20 -69 15 -10 -1 -12 -84 -12
l-103 -1 0 195 c0 212 3 226 57 276 29 28 138 88 161 89 9 0 12 -43 12 -185z"/>
<path d="M14558 12979 l33 -30 -20 -28 c-45 -63 -46 -68 -51 -516 -5 -413 -6
-432 -26 -472 l-21 -43 171 0 171 1 -37 30 -37 30 32 51 32 51 5 436 c5 419 6
438 26 479 l21 42 -166 0 -166 -1 33 -30z"/>
</g>
</svg>
