<svg width="20" height="20" viewBox="0 0 20 20" fill="none" xmlns="http://www.w3.org/2000/svg">
<path id="Vector" d="M10 20C15.5138 20 20 15.5141 20 10C20 4.48588 15.5138 0 10 0C4.48618 0 0 4.48588 0 10C0 15.5141 4.48618 20 10 20ZM2.01743 13.61H5.06701C5.44186 15.4934 6.10142 17.0882 6.95553 18.213C4.76022 17.3964 2.98017 15.73 2.01743 13.61ZM5.94952 10C5.94952 9.17826 6.00841 8.38124 6.11148 7.62049H9.38462V12.3792H6.11133C6.00842 11.6185 5.94952 10.8217 5.94952 10ZM14.0505 10C14.0505 10.8217 13.9916 11.6185 13.8887 12.3792H10.6154V7.62049H13.8885C13.9916 8.38124 14.0505 9.17826 14.0505 10ZM10.6154 18.6519V13.61H13.6732C13.1082 16.2278 11.9608 18.1845 10.6154 18.6519ZM10.6154 6.38972V1.3481C11.9606 1.8155 13.1082 3.77208 13.6731 6.38972H10.6154ZM9.38462 1.34811V6.38973H6.32692C6.89183 3.77209 8.03937 1.81551 9.38462 1.34811ZM9.38462 13.61V18.6519C8.03921 18.1845 6.89183 16.2278 6.32678 13.61H9.38462ZM13.0445 18.213C13.8986 17.0883 14.5581 15.4934 14.933 13.61H17.9826C17.0198 15.73 15.2398 17.3965 13.0445 18.213ZM18.4124 12.457C18.3266 12.4115 18.2332 12.3792 18.1292 12.3792H15.1307C15.2257 11.6176 15.2813 10.8242 15.2813 10C15.2813 9.17571 15.2257 8.38222 15.1307 7.6205H18.1292C18.2332 7.6205 18.3266 7.5882 18.4124 7.54282C18.6408 8.32347 18.7692 9.14649 18.7692 10C18.7692 10.8534 18.6409 11.6764 18.4124 12.457ZM17.9824 6.38972H14.9328C14.558 4.50639 13.8984 2.91166 13.0445 1.78696C15.2396 2.60352 17.0197 4.26976 17.9824 6.38972ZM6.95553 1.78696C6.10142 2.91166 5.44201 4.50639 5.06716 6.38972H2.01758C2.98047 4.26976 4.76037 2.60352 6.95553 1.78696ZM1.58759 7.54312C1.67323 7.58835 1.76653 7.62049 1.8702 7.62049H4.8693C4.77434 8.38221 4.71876 9.1757 4.71876 10C4.71876 10.8242 4.77434 11.6176 4.8693 12.3792H1.8702C1.76638 12.3792 1.67323 12.4114 1.58745 12.4566C1.35908 11.6762 1.23078 10.8533 1.23078 10C1.23077 9.14664 1.35908 8.3237 1.58759 7.54312Z" fill="#F8EBEC"/>
</svg>
