<svg width="22" height="21" viewBox="0 0 22 21" fill="none" xmlns="http://www.w3.org/2000/svg">
<g id="Paraguas" clip-path="url(#clip0_52_6)">
<g id="Union">
<path fill-rule="evenodd" clip-rule="evenodd" d="M9.34451 1.52961C11.1916 0.792913 13.1698 0.38176 15.0169 0.350411C15.3632 0.344383 15.9449 0.360057 16.2836 0.385377C17.9626 0.508361 19.5997 0.935188 21.0687 1.63451L21.2329 1.71288L20.8777 1.72011C19.3349 1.75508 18.109 1.99381 17.0983 2.45681C16.5191 2.72207 16.0697 3.02109 15.6394 3.42742C15.2499 3.79637 14.9762 4.14965 14.7165 4.61747C14.6707 4.69946 14.6312 4.76698 14.6299 4.76698C14.6274 4.76698 14.5816 4.71151 14.5256 4.64279C13.4919 3.36593 12.4455 2.52313 11.3125 2.05772C10.7486 1.82501 10.1783 1.69962 9.54946 1.66827C9.25286 1.6538 9.23758 1.6538 9.23758 1.66706C9.23758 1.67189 9.27959 1.68033 9.33051 1.68394C9.48327 1.696 9.80406 1.75146 10.0167 1.8021C11.1025 2.06013 12.21 2.66178 13.2538 3.56125C13.4804 3.75658 13.9107 4.17135 14.0991 4.37512C14.2315 4.5186 14.4657 4.78868 14.4861 4.82365C14.4925 4.83329 14.383 4.83691 14.0406 4.83812C13.3582 4.83812 12.9432 4.86826 12.3653 4.95989C11.8612 5.04068 11.1802 5.19983 10.8263 5.32161L10.7168 5.35899L10.8505 5.62063C10.8859 5.68959 10.9294 5.77498 10.9717 5.85819C11.0174 5.94813 11.0619 6.03552 11.0936 6.09689C11.1534 6.21385 11.2043 6.3091 11.2056 6.30669C11.2094 6.30307 11.2985 5.7617 11.3011 5.72794C11.3024 5.70382 11.3087 5.71829 12.1425 7.75114L12.9432 9.70441L14.0775 11.9169C15.4345 14.5659 15.4867 14.6636 15.5949 14.7914L15.6229 14.8251L15.7425 14.6551C15.8075 14.5611 15.8647 14.4887 15.8698 14.4935C15.8749 14.4984 15.9233 14.666 15.978 14.8661L16.0761 15.229L16.3612 15.3231C16.5178 15.3761 16.6464 15.422 16.6464 15.4268C16.6464 15.4328 16.5076 15.7017 16.337 16.0248C15.8558 16.9424 15.7502 17.2004 15.7336 17.5139C15.7247 17.6803 15.74 17.7671 15.7985 17.8732C15.8507 17.9672 16.3217 18.5158 16.4529 18.634C16.5891 18.7582 16.6858 18.8028 16.8373 18.8112C16.8971 18.8137 16.9773 18.81 17.0142 18.8028C17.1161 18.7823 17.2625 18.7232 17.3847 18.6545C17.4916 18.593 17.7118 18.4435 17.7373 18.4134C17.7488 18.4013 17.652 18.2819 17.3261 17.9009C17.0134 17.535 16.9038 17.4063 16.7694 17.308C16.6921 17.2515 16.6065 17.205 16.4694 17.1293C16.4592 17.122 16.5967 17.0641 16.8577 16.9629L17.2637 16.8061H17.3974C17.5222 16.8061 17.5362 16.8085 17.6138 16.8447C17.6596 16.8664 17.722 16.9086 17.7551 16.9412C17.7882 16.9725 17.9881 17.2028 18.1994 17.4512C18.6004 17.9214 18.6933 18.0215 18.8104 18.1071C18.8881 18.165 19.0001 18.2229 19.0357 18.2241C19.0485 18.2241 18.9874 18.2482 18.8995 18.2771C18.524 18.4037 18.2796 18.54 17.862 18.8559C17.4369 19.1766 17.2434 19.2537 16.8258 19.267C16.724 19.2694 16.64 19.2742 16.6387 19.2754C16.6311 19.2827 16.5929 19.5588 16.57 19.7782C16.5343 20.1207 16.5076 20.2629 16.4656 20.3389C16.4529 20.3582 16.449 20.3534 16.4338 20.2967C16.4096 20.2039 16.3039 20.0073 16.2161 19.8928C16.0671 19.6975 15.0589 18.5267 14.9533 18.4278C14.8374 18.3181 14.7101 18.2313 14.6312 18.2084C14.6045 18.2011 14.5854 18.1891 14.5892 18.1819C14.8451 17.6308 14.966 17.2076 15.0055 16.7157C15.0437 16.2238 14.952 15.6896 14.7509 15.2423C14.7216 15.1772 14.6987 15.1205 14.6987 15.1145C14.6987 15.1085 14.7522 15.0976 14.8171 15.0892C14.8807 15.0807 14.9533 15.0711 14.9749 15.0663L15.0157 15.0578L13.9031 12.8875C13.2908 11.6939 12.7879 10.7124 12.7854 10.7064C12.7841 10.7015 12.7459 10.7136 12.7014 10.7341C12.6568 10.7558 12.6199 10.7715 12.6174 10.7691C12.6161 10.7667 12.527 10.5074 12.42 10.1927L12.2278 9.62002L11.1942 7.60284C10.5449 6.33683 10.1541 5.58687 10.1427 5.58687C10.1147 5.58687 9.7786 5.75567 9.58129 5.86901C8.70675 6.37059 8.02825 7.10608 7.76601 7.83916C7.74437 7.89945 7.72782 7.93321 7.72146 7.92356C7.70746 7.89945 7.57507 7.45212 7.53942 7.31105C7.45286 6.95898 7.38666 6.57918 7.34848 6.21746C7.18426 4.66931 7.53179 3.1706 8.28412 2.1795C8.35413 2.08665 8.36432 2.06375 8.44706 1.81657C8.49671 1.67068 8.54253 1.50791 8.55017 1.45124C8.57563 1.28244 8.54508 1.06661 8.47379 0.911074C8.44833 0.854405 8.44961 0.855611 8.57309 0.976183C8.76276 1.16066 8.91806 1.39457 8.97662 1.58748C8.99572 1.65018 9.00208 1.65742 9.025 1.65259C9.04027 1.64898 9.18412 1.59472 9.34451 1.52961ZM12.8758 10.1083C12.5193 9.42228 11.9096 8.26116 11.52 7.52808C10.8937 6.34768 10.7397 6.06434 10.8072 6.21385C10.8174 6.23675 11.0796 6.75522 11.3889 7.36531C11.8128 8.20088 12.1667 8.87247 12.8236 10.0902C13.3048 10.9789 13.7032 11.7107 13.7096 11.718C13.7159 11.724 13.6765 11.6456 13.623 11.5431C13.5683 11.4407 13.2322 10.7944 12.8758 10.1083ZM15.3581 18.0842C15.1939 17.8913 15.2053 17.7177 15.4192 17.1992C15.465 17.0907 15.4994 16.999 15.4968 16.9966C15.4867 16.987 15.2804 17.4223 15.2372 17.5464C15.2015 17.6465 15.1901 17.6996 15.1862 17.7888C15.1836 17.836 15.1816 17.8709 15.187 17.9047C15.2031 18.0038 15.2842 18.0935 15.6089 18.4568C15.9488 18.8366 16.1295 19.0331 16.0913 18.9837C16.0646 18.9475 15.4192 18.1565 15.3581 18.0842ZM18.0886 18.0661C18.081 18.0565 17.9282 17.8635 17.7488 17.6381C17.5234 17.3559 17.4012 17.2137 17.3579 17.1823C17.3236 17.157 17.2956 17.1413 17.2956 17.1461C17.2956 17.1811 17.4267 17.3403 17.7284 17.6755C18.0492 18.0311 18.1256 18.1143 18.0886 18.0661Z" fill="#3C0303"/>
<path d="M4.63575 4.65243C5.63504 3.70956 6.71835 2.92222 8.11736 2.12162C8.20519 2.07218 8.28157 2.03119 8.28666 2.02998C8.29303 2.02998 8.28285 2.0553 8.26375 2.08665C7.59925 3.15975 7.25045 4.06766 7.13079 5.03826C7.10279 5.26373 7.09133 5.88348 7.11043 6.14271C7.14989 6.67805 7.24154 7.20736 7.39685 7.79937C7.43504 7.94526 7.46559 8.06583 7.46432 8.06704C7.46177 8.06825 7.40067 8.06222 7.32811 8.05257C6.85838 7.9947 6.22952 7.97058 5.83235 7.99711C5.0431 8.05016 4.39897 8.2069 3.77012 8.49869C2.85866 8.9231 2.05923 9.62122 1.35272 10.6111C1.28513 10.7068 1.25107 10.7562 1.23862 10.7518C1.22551 10.747 1.23635 10.6826 1.25725 10.5496C1.57676 8.47216 2.74282 6.43811 4.63575 4.65243Z" fill="#3C0303"/>
</g>
</g>
<defs>
<clipPath id="clip0_52_6">
<rect width="21" height="21" fill="white" transform="translate(0.5)"/>
</clipPath>
</defs>
</svg>
